Coordinates

Units are S.I. units (second, meters, Newtons, ...)
If the header above contains a line with 'inDegrees', this indicates whether rotational values are in degrees (yes) or radians (no).

inDegrees=no
nColumns=22
nRows=28
DataType=double
version=3
OpenSimVersion=4.6-2026-03-31-d6972f9e6
endheader
time	/jointset/ground_pelvis/pelvis_tilt/value	/jointset/ground_pelvis/pelvis_list/value	/jointset/ground_pelvis/pelvis_rotation/value	/jointset/ground_pelvis/pelvis_tx/value	/jointset/ground_pelvis/pelvis_ty/value	/jointset/ground_pelvis/pelvis_tz/value	/jointset/hip_r/hip_flexion_r/value	/jointset/hip_r/hip_adduction_r/value	/jointset/hip_r/hip_rotation_r/value	/jointset/walker_knee_r/knee_angle_r/value	/jointset/patellofemoral_r/knee_angle_r_beta/value	/jointset/ankle_r/ankle_angle_r/value	/jointset/hip_l/hip_flexion_l/value	/jointset/hip_l/hip_adduction_l/value	/jointset/hip_l/hip_rotation_l/value	/jointset/walker_knee_l/knee_angle_l/value	/jointset/patellofemoral_l/knee_angle_l_beta/value	/jointset/ankle_l/ankle_angle_l/value	/jointset/back/lumbar_extension/value	/jointset/back/lumbar_bending/value	/jointset/back/lumbar_rotation/value
44.905	-0.6841937509728653	0.02716223615413935	3.103466364293166	-3.508144889999526	1.119837970059384	2.484005890006335	-0.437814414893989	-0.1922715829336857	-0.2029710953283008	0.5725701364927268	0.5725701397602319	0.03072350348216219	-0.5179972615026186	-0.1817300192573815	-0.02590056567482792	0.470775212622786	0.4707752102209424	0.1565295018584095	-1.174972155658495	-0.04499046299682526	0.007154567961020431
44.91	-0.6847819183015432	0.02631349640526675	3.103287484573251	-3.50691637376956	1.119182258446169	2.484053972648292	-0.43420322344819	-0.1937641902263607	-0.2006555489457283	0.5792427202598238	0.5792427231569666	0.0316530167381626	-0.5141282468914622	-0.1812758398891489	-0.02408128926679908	0.477169828333167	0.4771698262524376	0.1578181877981226	-1.179686496053423	-0.04534272135097108	0.007077339190658974
44.915	-0.6853035321899064	0.0254547601092637	3.103123457548993	-3.505687417098225	1.118518177578154	2.484103196792628	-0.4305111273211536	-0.1952590739510457	-0.198345732258554	0.5859438380854635	0.5859438406201323	0.03260080031059449	-0.5101601658583097	-0.1808238080783342	-0.02225599372345957	0.4836130716467803	0.4836130698851402	0.15912699254429	-1.184341251419537	-0.04568551190974485	0.00699472899290372
44.92	-0.6856942453018045	0.02457647950601589	3.10298866245764	-3.504457559934706	1.117837505088538	2.484154674531473	-0.4266596714202556	-0.1967583349606784	-0.1960469285466271	0.5927014662538085	0.5927014684413631	0.03358473158103562	-0.5059970619804847	-0.1803760996439308	-0.02041910099397314	0.4901523234029422	0.4901523219562635	0.1604756686229696	-1.188878886605938	-0.04600960753634838	0.006901694110330994
44.925	-0.6858940225895485	0.02366996904906771	3.102896549111258	-3.503226304597696	1.11713230697957	2.484209459766316	-0.422575191865345	-0.1982637465676946	-0.1937635583804407	0.5995424873402665	0.5995424892027379	0.03462192489073025	-0.5015490617474748	-0.1799349291381483	-0.01856587653412673	0.4968325144823015	0.4968325133442115	0.1618832381770001	-1.193245872351629	-0.04630626273018714	0.006793835987209133
44.93	-0.6858490532561253	0.02272775931099497	3.102859216094284	-3.501993100735339	1.116395068545905	2.484268520761601	-0.4181909469812328	-0.1997766400401846	-0.1914988203358439	0.6064921964163091	0.6064921979812772	0.03572839582945943	-0.4967350791124133	-0.1795025360698614	-0.01669277035744602	0.5036950147130003	0.5036950138746988	0.1633676355956059	-1.197394459019419	-0.04656745061649346	0.006667656246301988
44.935	-0.6855133823364448	0.02174388036789817	3.102887039634644	-3.500757334343533	1.115618809970989	2.484332714919082	-0.4134489429980078	-0.2012978287475396	-0.1892544087496399	0.6135738667736127	0.6135738680728384	0.03691876359695159	-0.4914851304244438	-0.1790811535450455	-0.01479768916982813	0.5107766654238823	0.5107766648739482	0.1649453679179448	-1.201284187621332	-0.04678608524711787	0.006520754581227888
44.94	-0.6848501865802264	0.02071406805494674	3.102988369153979	-3.499518321571271	1.114797182312331	2.484402766741992	-0.4083013714885887	-0.2028275683134179	-0.1870303242215196	0.620808390401995	0.6208083914698979	0.03820599780918053	-0.4857421529487366	-0.1786729686384467	-0.01288019398209504	0.5181090029846532	0.5181090027088695	0.1666312082883065	-1.204883068267244	-0.04695621667095454	0.006351965445500291
44.945	-0.6838326354757673	0.01963588175133818	3.103169303622557	-3.498275307660959	1.113924540277884	2.484479249881418	-0.4027115935496289	-0.2043655568244919	-0.1848247933129965	0.6282140076537388	0.6282140085258033	0.03960122178711491	-0.4794632418779562	-0.178280075489622	-0.01094161051605587	0.5257177098475387	0.5257177098287691	0.1684379363116534	-1.208168371503473	-0.04707319031562179	0.006161423232009655
44.95	-0.6824443016833109	0.01850872184659898	3.103433561165835	-3.497027471000365	1.112995989304694	2.484562574205909	-0.3966546323953773	-0.2059109818595932	-0.1826343125746239	0.6358061364103106	0.6358061371215137	0.04111358382795798	-0.4726202525787636	-0.177904417143487	-0.008985034626357864	0.5336223152879123	0.5336223155060815	0.1703761395369202	-1.21112699968217	-0.04713376433290865	0.005950541626962138
44.955	-0.6806791151784192	0.01733374669689564	3.103782451184913	-3.495773931995465	1.112007406060953	2.484652978870965	-0.3901171698299008	-0.207462611581768	-0.1804538207368717	0.6435973016125693	0.6435973021959165	0.04275020046389016	-0.4651997576889249	-0.1775477184646254	-0.007015222014970982	0.5418361512454386	0.5418361516776751	0.1724540924171131	-1.213755432915504	-0.0471361762948067	0.005721901806343066
44.96	-0.6785408886941658	0.01611370520665772	3.104214948841531	-3.494513766298844	1.110955433413689	2.484750531841839	-0.3830970773195935	-0.2090189152580461	-0.1782769843211719	0.6515971567528317	0.651597157238081	0.04451616683295126	-0.4572023983694076	-0.177211421541082	-0.005038372466874542	0.5503665497353492	0.5503665503563087	0.1746777212737195	-1.216059274774142	-0.04708015187177973	0.00547906327275607
44.965	-0.6760424728356271	0.0148527110094559	3.104727858356828	-3.493246021778136	1.109837452728446	2.48485513535754	-0.375602543199191	-0.2105781953373652	-0.1760965666533223	0.6598125845450716	0.6598125849577094	0.04641462333239616	-0.4486417149164263	-0.176896637063854	-0.00306184218106967	0.5592152508039151	0.5592152515862501	0.1770506465404412	-1.218052451441296	-0.04696685610354516	0.005226326587014142
44.97	-0.6732046206415451	0.0135559845917999	3.105316042830482	-3.491969738491584	1.108651537629502	2.48496653621189	-0.3676508794320467	-0.2121387175996702	-0.1739048457129432	0.6682478625788717	0.6682478629394014	0.04844686549767818	-0.4395425722148825	-0.1766041204425791	-0.001093827817836725	0.5683789782129682	0.5683789791278719	0.1795742819249106	-1.219756137783179	-0.04679879585941315	0.004968478884514242
44.975	-0.6700546490382413	0.01222958363463149	3.10597269784884	-3.490683970881551	1.107396393809516	2.485084339801568	-0.35926710091221	-0.2136988324706189	-0.1716940509629449	0.6769048783282856	0.6769048786518712	0.05061248584014194	-0.4299393053457112	-0.1763342738860747	0.0008569425941725605	0.5778501337387507	0.5778501347565194	0.1822479718373305	-1.221197490994634	-0.04657968514581361	0.004710543437823561
44.98	-0.6666249815417191	0.01088013355389619	3.106689650354491	-3.489387811329844	1.10607128935544	2.485208027211343	-0.3504823692092175	-0.2152570864947755	-0.1694567968055549	0.6857833767360401	0.6857833770325044	0.05290954002171379	-0.4198737054577085	-0.1760871684820403	0.002781493956392213	0.5876175587682055	0.5876175598587967	0.185069156119716	-1.222408270248961	-0.04631428470100297	0.004457542722377472
44.985	-0.6629516497207376	0.009514564864848139	3.107457668665692	-3.488080414071463	1.104675979752132	2.485336974718694	-0.3413323865699343	-0.2168123252346001	-0.1671864951343483	0.6948812239671828	0.6948812242413056	0.05533473071613328	-0.4093929547183997	-0.175862577692794	0.004670857047261527	0.5976673153148194	0.5976673164484216	0.18803355466469	-1.223423415234725	-0.04600822593579821	0.004214278221235602
44.99	-0.6590728225291723	0.008139863261134476	3.108266771624002	-3.486761018343496	1.103210631320778	2.485470474984771	-0.3318558163453358	-0.2183637875073657	-0.1648777303535746	0.7041946733786121	0.7041946736306506	0.05788360189673167	-0.3985476054702969	-0.1756600156637911	0.006516285625532614	0.6079834471145786	0.6079834482622001	0.191135363462952	-1.224279649198827	-0.04566782811560215	0.003985130717546331
44.995	-0.6550274207810367	0.006762839441674778	3.109106525238513	-3.485428969706705	1.101675746252174	2.485607759109958	-0.3220927915454614	-0.2199111887829532	-0.1625265802075056	0.7137186235472845	0.7137186237736551	0.06055073754513262	-0.3873896817333363	-0.1754787765823179	0.008309433052634227	0.6185486911635441	0.6185486922976047	0.1943674540973851	-1.225014161370327	-0.04529991689125389	0.003773887421217238
45	-0.6508538597349437	0.005389928085692532	3.109966317369872	-3.48408373867379	1.100072091713661	2.485748018874745	-0.3120835570072194	-0.2214547875218167	-0.1601308673784956	0.7234468606686751	0.7234468608627626	0.06332995923050323	-0.3759709616585984	-0.1753179760608687	0.01004248520903464	0.6293451190341659	0.6293451201290681	0.1977215727270021	-1.225663410372887	-0.04491164895922841	0.003583604674005846
45.005	-0.6465889500105685	0.004027028096714619	3.110835605434426	-3.482724935969096	1.09840063493363	2.485890428744904	-0.3018672776583034	-0.222995422601994	-0.1576903296001418	0.7333722778102466	0.7333722779633133	0.06621451536781021	-0.3643414815978273	-0.1751766019943244	0.01170824788898087	0.6403546951889222	0.6403546962215865	0.2011885383549107	-1.226262078239994	-0.04451034212118676	0.003416516649303959
45.01	-0.6422669778680888	0.002679394581373203	3.111704135579897	-3.48135232392538	1.096662485710725	2.486034167322951	-0.2914810363955438	-0.2245345096786771	-0.1552067002509169	0.7434870642931507	0.7434870643953095	0.06919725549459274	-0.3525482888632675	-0.1750535839016069	0.01330018867387455	0.6515597450318731	0.651559745982241	0.2047584403725374	-1.226842195901505	-0.04410330772403342	0.003273997795902011
45.015	-0.6379189789316332	0.001351585700525478	3.112562132711415	-3.479965823693102	1.094858847395541	2.486178437858039	-0.2809590375710238	-0.226073991986305	-0.1526836980453879	0.7537828621941184	0.7537828622353013	0.07227078597598359	-0.3406344596813418	-0.1749478839458557	0.0148124362183212	0.6629433288743787	0.6629433297258602	0.2084208320178249	-1.227432454479025	-0.04369768523070946	0.003156578624146547
45.02	-0.6335722130234257	4.746001518869959e-05	3.113400460068467	-3.478565518014171	1.092990977063849	2.486322487357669	-0.2703320242423546	-0.2276162500204348	-0.1501269308723051	0.7642508914445922	0.7642508914154238	0.07542760524432653	-0.3286383893110921	-0.1748586055430977	0.01623974184655604	0.6744895211709587	0.6744895219107785	0.2121649123725342	-1.228057710744859	-0.04330028268277598	0.003064006780127088
45.025	-0.6292498396369223	-0.001229784970135165	3.114210746431706	-3.477151649399948	1.091060155235121	2.48646562387084	-0.2596269079255947	-0.2291639804069812	-0.1475437229668027	0.7748820470017358	0.7748820468942353	0.07866021758679777	-0.316593350935916	-0.1747851096949361	0.01757741177564084	0.6861835968192428	0.6861835974386306	0.2159796903318438	-1.228738687293381	-0.04291742936288593	0.002995342285723483
45.03	-0.6249707825869707	-0.002477547364651258	3.114985480623691	-3.475724613801058	1.089067664931112	2.486607231701206	-0.2488665984001691	-0.2307200595233568	-0.1449428800506581	0.785666971691576	0.785666971499656	0.0819612275560125	-0.3045273070887847	-0.1747271230081748	0.01882122814057621	0.6980121271478843	0.6980121276420719	0.2198541310167361	-1.229491857359621	-0.04255484770472995	0.002949073330014169
45.035	-0.6207497637451268	-0.003693743612493425	3.115718077531744	-3.474284950104698	1.087014779382019	2.486746784620259	-0.2380700135536749	-0.2322874071434551	-0.142334413162282	0.7965961073840787	0.7965961071038534	0.0853234189681136	-0.2924629462798123	-0.1746848217254441	0.01996738510590768	0.7099629903369382	0.7099629907049372	0.2237772918552633	-1.230329495829677	-0.04221754780753337	0.00292323788408332
45.04	-0.6165974819532576	-0.004876724409155655	3.116402923718555	-3.472833325939709	1.084902757393877	2.486883857248944	-0.2272522460857175	-0.2338688526771754	-0.1397292400511037	0.807659724908503	0.8076597245384574	0.08873981949096833	-0.2804179110158117	-0.1746588905466358	0.02101245798893907	0.7220253076423784	0.7220253078865581	0.2277384568091297	-1.231259873846381	-0.04190974012846647	0.002915544346833247
